<svg width="368" height="144" viewBox="0 0 368 144" fill="none" xmlns="http://www.w3.org/2000/svg">
<path d="M88.0428 17.5828C88.2151 16.7788 88.4448 16.2619 89.3637 16.2045C93.3263 15.9173 97.2889 15.2282 101.252 15.2856C106.133 15.3431 109.406 18.7314 110.038 23.9575C112.565 18.7314 114.518 13.2756 115.953 7.64753C115.896 7.5901 115.839 7.53267 115.724 7.53267C111.819 4.89092 107.339 4.14434 102.745 3.97205C93.3837 3.57004 84.3099 5.35035 75.2935 7.81981C74.834 7.93467 74.2597 8.68125 74.1449 9.19812C73.3409 13.0459 59.3281 81.2719 59.3281 81.2719H69.8377C72.7666 81.2719 75.3509 79.0322 75.9252 76.1033C76.0401 76.1033 87.4111 20.9711 88.0428 17.5828Z" fill="#16161D"/>
<path d="M123.649 17.4104C115.265 35.5006 101.252 51.4086 83.0469 59.8507C112.508 68.1779 131.919 39.3484 123.649 17.4104Z" fill="#16161D"/>
<path d="M46.8079 43.4829C43.5344 50.2021 24.8124 50.1447 18.0932 48.1921C22.343 38.6588 33.4268 32.9733 43.5918 37.1082C46.693 38.3716 48.0713 40.956 46.8079 43.4829ZM55.7668 31.7673C34.3457 11.2076 -2.17935 34.6962 3.67844 62.6642C7.29648 80.0653 26.3056 83.9131 41.6392 79.8356C51.4022 77.2513 50.1962 67.8329 50.1962 67.8329C37.9637 70.6469 14.7623 68.12 16.6575 58.8739C26.0759 61.5157 40.3758 62.09 50.4259 56.9787C63.5198 50.2595 61.2801 37.9122 55.7668 31.7673Z" fill="#16161D"/>
<path d="M172.921 38.1995C171.083 46.8139 169.361 55.4283 167.523 63.9853C167.351 64.7318 166.949 65.421 166.432 65.8804C162.067 69.7282 157.013 70.9916 151.385 69.6708C140.531 67.2013 142.311 51.9251 146.102 44.5742C149.547 37.8549 157.358 34.122 165.34 35.0983C173.323 36.2469 173.151 37.2232 172.921 38.1995ZM189.288 28.2642C180.215 25.3353 169.303 23.957 161.378 23.957C140.301 23.957 126.978 42.7938 127.609 59.3335C127.839 65.7081 130.021 80.0655 149.318 81.7309C154.659 82.1904 159.827 81.5012 164.307 78.2277C164.364 78.2277 164.651 77.9406 164.594 78.3426C164.422 79.2615 164.077 81.2715 164.077 81.2715C164.077 81.2715 174.127 81.2715 178.951 81.2715C179.87 81.2715 179.985 80.6398 180.1 80.008C183.546 63.3535 186.991 46.699 190.38 29.9871C190.552 29.0108 190.322 28.6088 189.288 28.2642Z" fill="#16161D"/>
<path d="M326.892 68.8095C315.291 66.4549 319.254 51.2361 321.666 46.6992C327.523 35.8451 335.449 35.3857 339.986 36.0748C345.958 36.9937 349.347 41.2434 349.002 48.4221C348.485 59.2762 340.388 71.5661 326.892 68.8095ZM363.244 44.1149C362.153 30.9636 351.644 24.0146 339.124 24.0146C312.764 24.0146 304.092 45.8378 304.896 61.0566C305.643 75.6436 318.679 82.4203 331.716 81.2143C343.891 80.4677 353.022 75.0119 358.65 64.2152C361.924 57.8979 363.991 51.2936 363.244 44.1149Z" fill="#16161D"/>
<path d="M187.051 105.851L189.003 96.2605C189.291 95.1694 190.382 94.3654 191.53 94.3079C197.446 94.1356 199.456 93.1019 202.384 89.9433C204.624 87.1293 206.347 84.8321 208.242 82.1903C208.472 81.8458 208.529 81.214 208.414 80.7546C205.198 64.6744 197.158 23.8996 197.158 23.8996C197.158 23.8996 211.803 23.7847 212.722 29.6425C214.502 40.8412 218.694 63.4684 218.867 64.3873C219.383 63.5258 233.109 40.0946 239.541 28.8959C242.7 23.3827 254.703 23.957 258.665 23.957C246.835 43.5978 223.863 81.6161 220.302 87.5313C210.999 102.865 202.786 105.966 194.229 105.851C191.932 105.851 187.051 105.851 187.051 105.851Z" fill="#16161D"/>
<path d="M295.765 65.4786C294.961 69.4986 293.41 76.8496 293.353 77.0793C293.295 77.4813 293.066 77.9982 292.491 78.1705C284.566 81.0993 276.124 82.4777 268.428 79.7785C243.562 71.0492 250.223 31.3081 276.239 24.9909C288.988 21.8897 301.737 26.3692 302.369 26.5989C303.116 26.8286 303.518 27.5752 303.403 28.2644C302.943 30.4467 301.508 37.4531 301.45 37.7402C294.272 35.443 286.691 33.7776 279.34 36.3045C264.696 41.4157 261.537 66.34 276.067 69.2689C283.015 70.7046 289.39 68.2352 295.765 65.4786Z" fill="#16161D"/>
<path d="M228.854 128.997C231.471 129.532 237.873 129.371 238.04 125.313C238.04 123.71 235.869 122.162 233.809 121.734C231.248 121.2 229.634 121.2 227.073 121.734C225.514 122.322 225.013 120.827 226.461 120.346C229.189 119.385 239.877 119.171 240.378 125.313C239.933 131.401 230.636 130.92 228.52 130.546C227.685 130.386 227.073 130.012 227.073 128.997V123.924C227.073 122.749 228.91 122.749 228.91 123.924L228.854 128.997Z" fill="#E1251B"/>
<path d="M248.953 121.894C246.893 121.894 243.386 127.982 242.328 130.172C241.715 131.453 239.767 130.545 240.379 129.264C241.493 126.914 245.668 119.864 248.897 119.918C252.181 119.864 256.301 126.914 257.414 129.264C258.027 130.545 256.078 131.507 255.466 130.172C254.464 127.982 251.012 121.894 248.953 121.894Z" fill="#E1251B"/>
<path d="M263.482 128.729C265.542 128.729 269.049 122.641 270.107 120.452C270.719 119.17 272.667 120.078 272.055 121.36C270.942 123.709 266.766 130.812 263.537 130.705C260.253 130.759 256.133 123.709 255.02 121.36C254.408 120.024 256.356 119.117 256.968 120.452C257.915 122.641 261.366 128.729 263.482 128.729Z" fill="#E1251B"/>
<path d="M275.507 120.879V129.744C275.507 131.079 273.447 131.026 273.447 129.691V120.879C273.447 119.49 275.507 119.49 275.507 120.879Z" fill="#E1251B"/>
<path d="M285.529 128.729C287.588 128.729 291.096 122.641 292.153 120.451C292.766 119.17 294.714 120.078 294.102 121.359C292.988 123.709 288.813 130.812 285.584 130.705C282.3 130.759 278.18 123.709 277.067 121.359C276.454 120.024 278.403 119.116 279.015 120.451C279.962 122.641 283.413 128.729 285.529 128.729Z" fill="#E1251B"/>
<path d="M301.561 126.22C302.173 127.448 303.899 128.463 305.625 128.836C308.186 129.37 309.8 129.37 312.361 128.836C313.92 128.356 314.421 129.798 312.973 130.278C310.134 131.186 299.612 131.507 299 125.365C299.334 119.491 307.74 119.651 310.913 120.025C312.472 120.238 312.138 121.787 310.524 121.467C308.353 121.199 302.563 120.879 301.449 124.564H307.406C308.353 124.564 308.353 126.22 307.406 126.22H301.561Z" fill="#E1251B"/>
<path d="M334.796 128.997C337.412 129.532 343.814 129.371 343.981 125.313C343.981 123.71 341.81 122.162 339.751 121.734C337.19 121.2 335.575 121.2 333.014 121.734C331.456 122.322 330.955 120.827 332.402 120.346C335.13 119.385 345.819 119.171 346.32 125.313C345.874 131.401 336.522 130.92 334.462 130.546C333.627 130.386 333.014 130.012 333.014 128.997V123.924C333.014 122.749 334.852 122.749 334.852 123.924L334.796 128.997Z" fill="#E1251B"/>
<path d="M354.835 121.894C352.776 121.894 349.268 127.982 348.211 130.172C347.598 131.453 345.65 130.545 346.262 129.264C347.376 126.914 351.551 119.864 354.78 119.918C358.064 119.864 362.184 126.914 363.297 129.264C363.91 130.545 361.961 131.507 361.349 130.172C360.402 127.982 356.895 121.894 354.835 121.894Z" fill="#E1251B"/>
<path d="M297.552 120.879V129.744C297.552 131.079 295.492 131.026 295.492 129.691V120.879C295.492 119.49 297.552 119.49 297.552 120.879Z" fill="#E1251B"/>
<path d="M322.661 127.127C321.381 124.884 319.933 121.84 318.987 121.787C316.593 121.787 317.651 126.326 317.651 129.905C317.651 131.133 315.591 131.133 315.591 129.744C315.591 125.205 314.589 119.811 319.098 119.811C320.434 119.811 321.659 121.68 322.772 123.496C324.053 125.792 325.612 128.783 326.558 128.836C328.952 128.836 327.838 124.404 327.838 120.826C327.838 119.597 329.898 119.597 329.898 120.986C329.898 125.525 330.956 130.812 326.447 130.812C325.111 130.812 323.774 128.89 322.661 127.127Z" fill="#E1251B"/>
<path fill-rule="evenodd" clip-rule="evenodd" d="M205.434 122.48C205.49 122.8 205.434 124.189 204.098 126.058C202.706 128.141 204.877 131.612 209.275 130.758C210.222 131.078 211.279 131.132 211.947 131.132C212.615 131.132 213.673 131.078 214.62 130.758C219.018 131.666 221.189 128.141 219.797 126.058C218.461 124.189 218.461 122.8 218.461 122.48H205.434Z" fill="#E1251B"/>
<path fill-rule="evenodd" clip-rule="evenodd" d="M211.952 131.132C207.665 131.025 206.886 129.156 208.055 128.729C208.723 128.515 209.669 128.088 209.669 128.088C209.224 125.952 209.947 123.228 211.952 123.228C213.956 123.228 214.679 126.059 214.234 128.142C214.234 128.142 215.125 128.462 215.848 128.729C216.962 129.156 216.238 131.025 211.952 131.132Z" fill="#0075C9"/>
<path fill-rule="evenodd" clip-rule="evenodd" d="M210.334 129.638C209.221 126.594 210.223 123.71 211.949 123.71C213.619 123.71 214.732 126.487 213.563 129.638C213.563 129.638 213.006 129.531 211.893 129.531C211.058 129.531 210.334 129.638 210.334 129.638Z" fill="#FFD100"/>
<path fill-rule="evenodd" clip-rule="evenodd" d="M211.949 131.187C213.674 131.187 215.066 130.813 215.066 130.332C215.066 129.852 213.73 129.478 211.949 129.478C210.223 129.478 208.887 129.852 208.887 130.332C208.887 130.813 210.223 131.187 211.949 131.187Z" fill="#F18A00"/>
<path fill-rule="evenodd" clip-rule="evenodd" d="M206.271 123.978H208.33C208.664 123.978 208.943 124.245 208.943 124.565V125.9C208.943 126.221 208.664 126.488 208.33 126.488H206.271C205.937 126.488 205.658 126.221 205.658 125.9V124.565C205.658 124.245 205.937 123.978 206.271 123.978Z" fill="#0075C9"/>
<path d="M206.494 124.295H208.109C208.387 124.295 208.554 124.509 208.554 124.722V125.684C208.554 125.897 208.331 126.111 208.109 126.111H206.494C206.272 126.111 206.049 125.897 206.049 125.684V124.722C206.049 124.509 206.216 124.295 206.494 124.295Z" fill="#2D2A26"/>
<path fill-rule="evenodd" clip-rule="evenodd" d="M208.552 125.47C207.828 125.417 207.55 124.562 207.494 124.295H208.107C208.385 124.295 208.552 124.509 208.552 124.722V125.47Z" fill="#FFD100"/>
<path fill-rule="evenodd" clip-rule="evenodd" d="M207.107 124.295C207.051 124.509 206.828 125.417 206.049 125.47V124.722C206.049 124.509 206.272 124.295 206.494 124.295H207.107Z" fill="#FFD100"/>
<path fill-rule="evenodd" clip-rule="evenodd" d="M215.565 123.978H217.625C217.959 123.978 218.238 124.245 218.238 124.565V125.901C218.238 126.221 217.959 126.488 217.625 126.488H215.565C215.231 126.488 214.953 126.221 214.953 125.901V124.565C215.009 124.245 215.287 123.978 215.565 123.978Z" fill="#0075C9"/>
<path d="M215.846 124.295H217.516C217.739 124.295 217.961 124.509 217.961 124.722V125.684C217.961 125.897 217.739 126.111 217.516 126.111H215.846C215.623 126.111 215.4 125.897 215.4 125.684V124.722C215.4 124.509 215.567 124.295 215.846 124.295Z" fill="#2D2A26"/>
<path fill-rule="evenodd" clip-rule="evenodd" d="M217.903 125.47C217.18 125.417 216.901 124.562 216.846 124.295H217.458C217.681 124.295 217.903 124.509 217.903 124.722V125.47Z" fill="#FFD100"/>
<path fill-rule="evenodd" clip-rule="evenodd" d="M216.458 124.295C216.402 124.509 216.18 125.417 215.4 125.47V124.722C215.4 124.509 215.623 124.295 215.846 124.295H216.458Z" fill="#FFD100"/>
<path fill-rule="evenodd" clip-rule="evenodd" d="M216.236 117.302C216.013 116.608 215.958 116.234 216.681 116.234H218.184C219.075 116.234 218.685 116.875 218.63 117.569C218.518 118.477 218.518 118.744 218.518 118.744C218.518 118.744 216.292 117.355 216.236 117.302Z" fill="#E1251B"/>
<path fill-rule="evenodd" clip-rule="evenodd" d="M211.95 122.427C209.723 122.427 206.605 122.641 204.657 122.748C203.154 122.855 201.985 121.733 202.987 120.718C205.158 118.475 210.391 115.645 211.95 115.645C213.62 115.645 218.797 118.475 220.913 120.718C221.915 121.787 220.913 122.748 219.41 122.748C217.739 122.748 214.177 122.427 211.95 122.427Z" fill="#F18A00"/>
<path d="M213.174 127.448C213.174 127.287 213.285 127.181 213.452 127.181C213.619 127.181 213.731 127.287 213.731 127.448C213.731 127.608 213.619 127.715 213.452 127.715C213.285 127.715 213.174 127.608 213.174 127.448Z" fill="#231F20"/>
<path fill-rule="evenodd" clip-rule="evenodd" d="M211.948 129.424C211.057 129.424 210.334 129.531 210.334 129.531C209.276 126.54 210.222 123.763 211.948 123.763C213.674 123.763 214.62 126.593 213.563 129.531C213.563 129.531 212.895 129.424 211.948 129.424ZM213.563 129.638C214.453 129.798 215.01 130.011 215.01 130.278C215.01 130.706 213.674 131.079 212.004 131.079C210.334 131.079 208.942 130.759 208.942 130.278C208.942 130.011 209.499 129.744 210.389 129.638C210.389 129.638 211.336 129.531 211.948 129.531C212.561 129.531 213.563 129.638 213.563 129.638ZM213.674 129.584C214.787 126.487 213.73 123.656 211.948 123.656C210.222 123.656 209.109 126.487 210.222 129.584C209.332 129.744 208.775 130.011 208.775 130.332C208.775 130.439 208.831 130.545 208.942 130.599C207.495 130.011 207.383 128.997 208.163 128.73C208.831 128.516 209.666 128.196 209.666 128.196C209.22 126.113 209.888 123.336 211.893 123.336C213.897 123.336 214.565 126.113 214.119 128.196C214.119 128.196 214.954 128.516 215.622 128.73C216.402 128.997 216.29 129.958 214.843 130.599C214.954 130.492 215.01 130.439 215.01 130.332C215.121 130.011 214.509 129.744 213.674 129.584ZM216.346 117.301C216.179 116.66 216.179 116.393 216.736 116.393H218.016C218.851 116.393 218.517 116.981 218.462 117.621C218.406 117.995 218.406 118.316 218.35 118.529C217.738 118.049 217.014 117.675 216.346 117.301ZM214.843 130.759C218.963 131.4 220.967 128.089 219.631 126.113C218.629 124.671 218.35 123.443 218.35 122.802C215.678 122.641 213.785 122.535 211.948 122.535C210.111 122.535 208.218 122.695 205.546 122.802C205.49 123.443 205.268 124.617 204.266 126.113C202.93 128.089 204.934 131.453 209.053 130.759C207.328 130.118 207.105 129.05 207.996 128.676C208.664 128.409 209.61 128.089 209.61 128.089C209.165 125.953 209.944 123.122 211.948 123.122C213.952 123.122 214.732 125.953 214.286 128.089C214.286 128.089 215.233 128.409 215.901 128.676C216.847 129.05 216.624 130.118 214.843 130.759ZM211.948 122.268C209.61 122.321 207.439 122.481 204.822 122.641C203.208 122.748 202.317 121.734 203.319 120.665C204.822 119.117 209.888 115.859 211.948 115.859C214.008 115.859 219.074 119.063 220.577 120.665C221.579 121.734 220.688 122.748 219.074 122.641C216.457 122.481 214.286 122.321 211.948 122.268ZM216.068 117.141C216.068 117.087 216.012 117.034 216.012 116.927C215.901 116.553 216.012 116.126 216.68 116.126H218.183C219.074 116.126 218.963 116.714 218.796 117.301C218.684 117.728 218.629 118.209 218.573 118.69C218.573 118.69 219.798 119.544 220.466 120.131C222.637 121.894 221.245 123.015 219.185 122.909C218.963 122.909 218.796 122.909 218.573 122.855C218.573 123.443 218.74 124.511 219.686 125.739C222.08 128.463 218.907 131.881 214.453 130.919C213.73 131.133 212.561 131.24 211.893 131.24C211.224 131.24 210.055 131.133 209.332 130.919C204.878 131.881 201.705 128.463 204.099 125.739C205.045 124.511 205.212 123.443 205.212 122.855L204.6 122.909C202.54 123.015 201.148 121.894 203.319 120.131C206.493 117.568 210.389 115.645 211.837 115.645C212.783 115.592 214.342 116.179 216.068 117.141Z" fill="#2D2A26"/>
<path d="M208.33 126.54H206.271C205.937 126.54 205.658 126.273 205.658 125.952V124.617C205.658 124.297 205.937 124.03 206.271 124.03H208.33C208.664 124.03 208.943 124.297 208.943 124.617V125.952C208.943 126.273 208.664 126.54 208.33 126.54ZM206.271 124.03C205.937 124.03 205.714 124.243 205.714 124.564V125.899C205.714 126.219 205.992 126.433 206.271 126.433H208.33C208.664 126.433 208.887 126.166 208.887 125.899V124.564C208.887 124.243 208.609 124.03 208.33 124.03H206.271Z" fill="#2D2A26"/>
<path d="M217.682 126.539H215.622C215.288 126.539 215.01 126.272 215.01 125.952V124.617C215.01 124.296 215.288 124.029 215.622 124.029H217.682C218.016 124.029 218.294 124.296 218.294 124.617V125.952C218.294 126.272 218.016 126.539 217.682 126.539ZM215.566 124.029C215.232 124.029 215.01 124.243 215.01 124.563V125.898C215.01 126.219 215.232 126.433 215.566 126.433H217.626C217.96 126.433 218.183 126.165 218.183 125.898V124.563C218.183 124.243 217.905 124.029 217.626 124.029H215.566Z" fill="#2D2A26"/>
<path d="M92.7928 131.162C91.7463 131.162 90.8512 130.973 90.1073 130.594C89.376 130.216 88.8465 129.674 88.5187 128.968C88.2035 128.249 88.153 127.392 88.3674 126.396L89.9749 118.793H92.528L90.9583 126.207C90.744 127.241 90.8007 127.966 91.1285 128.382C91.4564 128.785 92.1687 128.987 93.2656 128.987C94.2869 128.987 95.0686 128.76 95.6107 128.306C96.1529 127.84 96.5248 127.14 96.7265 126.207L98.2962 118.793H100.849L99.2418 126.396C98.9014 127.997 98.2017 129.195 97.1426 129.989C96.0961 130.771 94.6462 131.162 92.7928 131.162ZM100.352 130.973L102.243 122.008H104.607L104.531 122.859C104.96 122.582 105.471 122.342 106.063 122.141C106.668 121.926 107.28 121.819 107.898 121.819C110.167 121.819 111.062 122.954 110.583 125.223L109.373 130.973H106.82L108.011 125.356C108.137 124.751 108.112 124.322 107.935 124.07C107.759 123.818 107.356 123.692 106.725 123.692C106.259 123.692 105.811 123.78 105.382 123.956C104.954 124.133 104.575 124.353 104.248 124.618L102.905 130.973H100.352ZM114.862 131.162C114.093 131.162 113.425 131.023 112.858 130.746C112.303 130.468 111.906 130.021 111.666 129.403C111.439 128.773 111.433 127.947 111.647 126.925C111.874 125.854 112.252 124.94 112.782 124.183C113.312 123.427 113.948 122.847 114.692 122.443C115.436 122.027 116.23 121.819 117.075 121.819C117.579 121.819 118.014 121.876 118.38 121.989C118.746 122.103 119.086 122.305 119.401 122.595L119.515 122.008H122.068L120.177 130.973H117.983L118.002 130.141C117.535 130.481 117.05 130.739 116.546 130.916C116.054 131.08 115.493 131.162 114.862 131.162ZM115.959 129.289C116.754 129.289 117.485 129.018 118.153 128.476L118.985 124.486C118.594 123.956 118.046 123.692 117.34 123.692C115.739 123.692 114.705 124.769 114.238 126.925C114.037 127.846 114.068 128.47 114.333 128.798C114.61 129.126 115.152 129.289 115.959 129.289ZM129.605 131.162C128.937 131.162 128.313 131.111 127.733 131.01C127.153 130.922 126.693 130.809 126.352 130.67L126.806 128.552C127.21 128.728 127.676 128.867 128.206 128.968C128.748 129.056 129.252 129.1 129.719 129.1C130.349 129.1 130.803 129.063 131.08 128.987C131.358 128.911 131.522 128.741 131.572 128.476C131.635 128.174 131.477 127.953 131.099 127.814C130.734 127.676 130.191 127.48 129.473 127.228C128.704 126.951 128.136 126.61 127.771 126.207C127.418 125.791 127.323 125.217 127.487 124.486C127.676 123.628 128.111 122.973 128.792 122.519C129.473 122.052 130.544 121.819 132.007 121.819C132.562 121.819 133.079 121.863 133.558 121.952C134.037 122.027 134.434 122.122 134.749 122.235L134.295 124.335C133.993 124.171 133.627 124.051 133.198 123.975C132.782 123.887 132.385 123.843 132.007 123.843C131.465 123.843 131.024 123.881 130.683 123.956C130.355 124.032 130.16 124.196 130.097 124.448C130.046 124.725 130.179 124.921 130.494 125.034C130.809 125.148 131.314 125.318 132.007 125.545C133.003 125.873 133.646 126.257 133.936 126.699C134.239 127.14 134.314 127.72 134.163 128.438C133.974 129.334 133.52 130.014 132.801 130.481C132.095 130.935 131.03 131.162 129.605 131.162ZM139.535 131.162C137.934 131.162 136.812 130.758 136.169 129.951C135.526 129.132 135.362 127.978 135.677 126.49C135.992 125.003 136.61 123.855 137.53 123.048C138.451 122.229 139.781 121.819 141.521 121.819C143.147 121.819 144.282 122.229 144.925 123.048C145.568 123.855 145.732 125.003 145.417 126.49C145.102 127.978 144.49 129.132 143.582 129.951C142.674 130.758 141.325 131.162 139.535 131.162ZM140.008 128.987C140.827 128.987 141.451 128.804 141.88 128.438C142.309 128.06 142.624 127.411 142.826 126.49C143.015 125.57 142.99 124.927 142.75 124.561C142.511 124.183 141.95 123.994 141.067 123.994C140.26 123.994 139.636 124.183 139.195 124.561C138.766 124.927 138.457 125.57 138.268 126.49C138.066 127.411 138.085 128.06 138.325 128.438C138.564 128.804 139.125 128.987 140.008 128.987ZM148.686 131.162C147.022 131.162 146.372 130.317 146.738 128.628L148.951 118.226H151.504L149.329 128.42C149.266 128.735 149.272 128.955 149.348 129.081C149.436 129.195 149.619 129.252 149.896 129.252C150.224 129.252 150.527 129.208 150.804 129.119L150.445 130.878C149.915 131.067 149.329 131.162 148.686 131.162ZM154.671 131.162C153.637 131.162 152.874 130.865 152.383 130.273C151.903 129.668 151.784 128.785 152.023 127.625L153.215 122.008H155.768L154.595 127.568C154.469 128.174 154.507 128.615 154.709 128.892C154.911 129.157 155.327 129.289 155.957 129.289C156.398 129.289 156.827 129.201 157.243 129.025C157.659 128.848 158.025 128.628 158.34 128.363L159.683 122.008H162.236L160.345 130.973H157.981L158.056 130.122C157.615 130.424 157.117 130.676 156.562 130.878C156.007 131.067 155.377 131.162 154.671 131.162ZM167.037 131.162C166.079 131.162 165.26 130.985 164.579 130.632C163.911 130.279 163.438 129.756 163.16 129.063C162.896 128.369 162.87 127.512 163.085 126.49C163.413 124.914 164.087 123.742 165.108 122.973C166.13 122.204 167.46 121.819 169.099 121.819C169.729 121.819 170.259 121.863 170.687 121.952C171.129 122.04 171.545 122.185 171.936 122.387L171.538 124.221C171.261 124.07 170.921 123.95 170.517 123.862C170.126 123.773 169.691 123.729 169.212 123.729C168.254 123.729 167.479 123.931 166.886 124.335C166.294 124.725 165.89 125.444 165.676 126.49C165.474 127.449 165.524 128.148 165.827 128.59C166.142 129.031 166.873 129.252 168.021 129.252C168.462 129.252 168.903 129.208 169.345 129.119C169.786 129.031 170.208 128.899 170.612 128.722L170.215 130.613C169.282 130.979 168.223 131.162 167.037 131.162ZM174.645 120.363L175.061 118.358H177.842L177.425 120.363H174.645ZM172.603 130.973L174.097 123.9H172.754L173.378 122.008H177.047L175.156 130.973H172.603ZM182.738 121.101L185.008 117.564H187.22L184.8 121.101H182.738ZM181.755 131.162C180.154 131.162 179.031 130.758 178.388 129.951C177.745 129.132 177.582 127.978 177.897 126.49C178.212 125.003 178.83 123.855 179.75 123.048C180.671 122.229 182.001 121.819 183.741 121.819C185.367 121.819 186.502 122.229 187.145 123.048C187.788 123.855 187.952 125.003 187.636 126.49C187.321 127.978 186.71 129.132 185.802 129.951C184.894 130.758 183.545 131.162 181.755 131.162ZM182.228 128.987C183.047 128.987 183.671 128.804 184.1 128.438C184.529 128.06 184.844 127.411 185.046 126.49C185.235 125.57 185.209 124.927 184.97 124.561C184.73 124.183 184.169 123.994 183.287 123.994C182.48 123.994 181.856 124.183 181.414 124.561C180.986 124.927 180.677 125.57 180.488 126.49C180.286 127.411 180.305 128.06 180.544 128.438C180.784 128.804 181.345 128.987 182.228 128.987ZM188.485 130.973L190.376 122.008H192.74L192.665 122.859C193.093 122.582 193.604 122.342 194.196 122.141C194.802 121.926 195.413 121.819 196.031 121.819C198.3 121.819 199.196 122.954 198.716 125.223L197.506 130.973H194.953L196.144 125.356C196.27 124.751 196.245 124.322 196.069 124.07C195.892 123.818 195.489 123.692 194.858 123.692C194.392 123.692 193.944 123.78 193.516 123.956C193.087 124.133 192.709 124.353 192.381 124.618L191.038 130.973H188.485Z" fill="#16161D"/>
</svg>
