<svg width="125" height="45" viewBox="0 0 125 45" fill="none" xmlns="http://www.w3.org/2000/svg">
<path d="M29.4786 4.57993C29.5356 4.31122 29.6241 4.14328 29.9439 4.1206C31.3146 4.01816 32.6826 3.80655 34.0488 3.8183C35.7367 3.82922 36.854 4.96284 37.074 6.68092C37.9433 4.95361 38.6269 3.14736 39.1159 1.29661C39.0922 1.27982 39.0686 1.26471 39.0449 1.24959C37.6962 0.373759 36.1556 0.138637 34.5729 0.0748185C31.34 -0.0595372 28.2088 0.538345 25.1152 1.35036C24.9505 1.39486 24.7594 1.63418 24.7209 1.81137C24.4483 3.07767 19.6126 25.6142 19.6126 25.6142H23.2302C24.2494 25.6142 25.1222 24.8676 25.3291 23.907C25.3308 23.9112 29.2437 5.68585 29.4786 4.57909V4.57993Z" fill="white"/>
<path d="M41.7364 4.44995C38.8549 10.4237 34.0157 15.6737 27.734 18.4632C37.9085 21.2293 44.6047 11.7026 41.7364 4.44995Z" fill="white"/>
<path d="M51.0534 39.3418C51.2418 39.1059 51.4915 38.9094 51.8009 38.754C52.1102 38.5936 52.4485 38.513 52.8157 38.513C53.1513 38.513 53.4476 38.581 53.7043 38.7162C53.9664 38.8464 54.1679 39.0379 54.3099 39.2889C54.4519 39.535 54.522 39.8263 54.522 40.1631C54.522 40.3092 54.5062 40.4645 54.4746 40.63C54.3958 41.0473 54.2363 41.4185 53.9953 41.7451C53.7595 42.0718 53.4686 42.3254 53.1224 42.5059C52.7815 42.6873 52.4196 42.7771 52.0375 42.7771C51.6554 42.7771 51.361 42.699 51.1094 42.5437C50.8632 42.3833 50.6844 42.1843 50.5749 41.9483L50.0797 44.669H49.3637L50.4802 38.5802H51.1962L51.0551 39.341L51.0534 39.3418ZM53.7376 40.6266C53.7587 40.5216 53.7692 40.4066 53.7692 40.2815C53.7692 39.9162 53.657 39.6307 53.4318 39.425C53.2074 39.215 52.9165 39.1092 52.5616 39.1092C52.3004 39.1092 52.0463 39.1722 51.8009 39.2973C51.5555 39.4174 51.3434 39.5954 51.1655 39.8305C50.9929 40.0606 50.8781 40.3285 50.8202 40.6342C50.7992 40.7391 50.7887 40.855 50.7887 40.9801C50.7887 41.3454 50.9009 41.6359 51.1261 41.8518C51.3557 42.0617 51.6458 42.1675 51.9963 42.1675C52.2627 42.1675 52.5169 42.107 52.757 41.987C53.0024 41.8618 53.2118 41.6838 53.3845 41.4537C53.5624 41.2186 53.6798 40.9432 53.7376 40.6274V40.6266ZM55.1345 40.6216C55.2125 40.2017 55.3694 39.8339 55.6043 39.5182C55.8444 39.1982 56.1345 38.9505 56.4736 38.775C56.818 38.6003 57.1835 38.5122 57.5699 38.5122C57.9564 38.5122 58.2561 38.5894 58.5015 38.7448C58.7469 38.9001 58.9169 39.095 59.0107 39.3301L59.1518 38.5794H59.8721L59.1123 42.6915H58.392L58.5409 41.9257C58.3534 42.1658 58.1054 42.3657 57.7969 42.5261C57.4884 42.6814 57.1493 42.7587 56.7786 42.7587C56.4447 42.7587 56.1494 42.6915 55.8935 42.5563C55.6376 42.4161 55.4395 42.2187 55.2984 41.9634C55.1573 41.7082 55.0872 41.4134 55.0872 41.0784C55.0872 40.9281 55.103 40.7761 55.1345 40.6207V40.6216ZM58.7776 40.6342C58.7986 40.5292 58.8091 40.4167 58.8091 40.2966C58.8091 39.9305 58.6943 39.6433 58.4638 39.4325C58.2395 39.2175 57.9511 39.1092 57.6015 39.1092C57.3351 39.1092 57.0792 39.1697 56.8329 39.2898C56.5928 39.4098 56.386 39.5853 56.2133 39.8154C56.0407 40.0455 55.9259 40.3159 55.8681 40.6266C55.847 40.7316 55.8365 40.8475 55.8365 40.9726C55.8365 41.3429 55.9487 41.6359 56.1739 41.8518C56.3982 42.0617 56.6857 42.1675 57.0362 42.1675C57.3026 42.1675 57.5559 42.107 57.7969 41.987C58.0423 41.8618 58.2517 41.6838 58.4244 41.4537C58.6023 41.2186 58.7197 40.9457 58.7776 40.635V40.6342ZM62.8701 38.513C63.2435 38.513 63.5563 38.5911 63.8087 38.7473C64.0611 38.9035 64.232 39.1 64.3214 39.3368L64.4634 38.581H65.189L64.4081 42.8124C64.3398 43.1903 64.1926 43.5253 63.9665 43.8176C63.7456 44.1148 63.4643 44.3466 63.1225 44.5128C62.7807 44.6791 62.4022 44.7622 61.9868 44.7622C61.4189 44.7622 60.9693 44.6312 60.6381 44.3693C60.3068 44.1123 60.1464 43.7646 60.1569 43.3263H60.8747C60.9062 43.5782 61.0298 43.7798 61.2454 43.9309C61.4662 44.0871 61.7502 44.1652 62.0972 44.1652C62.4916 44.1652 62.836 44.0468 63.1304 43.81C63.4249 43.5732 63.6115 43.2407 63.6904 42.8124L63.8481 41.9433C63.6589 42.1851 63.4091 42.3867 63.0989 42.5479C62.7939 42.7091 62.4547 42.7897 62.0814 42.7897C61.7449 42.7897 61.4478 42.7217 61.1902 42.5857C60.9325 42.4446 60.7301 42.2456 60.5828 41.9886C60.4409 41.7317 60.3699 41.4344 60.3699 41.0968C60.3699 40.9457 60.3857 40.792 60.4172 40.6358C60.4961 40.2126 60.6538 39.8423 60.8904 39.5249C61.1323 39.2024 61.4241 38.953 61.7659 38.7767C62.113 38.6004 62.481 38.5122 62.8701 38.5122V38.513ZM64.076 40.6342C64.097 40.5292 64.1076 40.4167 64.1076 40.2966C64.1076 39.9305 63.9927 39.6433 63.7623 39.4325C63.5379 39.2175 63.2496 39.1092 62.8999 39.1092C62.6335 39.1092 62.3776 39.1697 62.1314 39.2898C61.8912 39.4098 61.6844 39.5853 61.5118 39.8154C61.3391 40.0455 61.2243 40.3159 61.1665 40.6266C61.1455 40.7316 61.1349 40.8475 61.1349 40.9726C61.1349 41.3429 61.2471 41.6359 61.4723 41.8518C61.6967 42.0617 61.985 42.1675 62.3347 42.1675C62.6011 42.1675 62.8544 42.107 63.0954 41.987C63.3407 41.8618 63.5502 41.6838 63.7228 41.4537C63.9007 41.2186 64.0182 40.9457 64.076 40.635V40.6342ZM65.7314 40.6216C65.8094 40.2017 65.9663 39.8339 66.2012 39.5182C66.4413 39.1982 66.7314 38.9505 67.0705 38.775C67.4149 38.6003 67.7804 38.5122 68.1668 38.5122C68.5533 38.5122 68.853 38.5894 69.0984 38.7448C69.3438 38.9001 69.5138 39.095 69.6076 39.3301L69.7487 38.5794H70.469L69.7092 42.6915H68.9888L69.1378 41.9257C68.9503 42.1658 68.7023 42.3657 68.3938 42.5261C68.0853 42.6814 67.7462 42.7587 67.3755 42.7587C67.0416 42.7587 66.7463 42.6915 66.4904 42.5563C66.2345 42.4161 66.0364 42.2187 65.8953 41.9634C65.7542 41.7082 65.6841 41.4134 65.6841 41.0784C65.6841 40.9281 65.6999 40.7761 65.7314 40.6207V40.6216ZM69.3744 40.6342C69.3955 40.5292 69.406 40.4167 69.406 40.2966C69.406 39.9305 69.2912 39.6433 69.0607 39.4325C68.8364 39.2175 68.5489 39.1092 68.1984 39.1092C67.932 39.1092 67.6761 39.1697 67.4298 39.2898C67.1897 39.4098 66.9829 39.5853 66.8102 39.8154C66.6376 40.0455 66.5228 40.3159 66.4649 40.6266C66.4439 40.7316 66.4334 40.8475 66.4334 40.9726C66.4334 41.3429 66.5456 41.6359 66.7708 41.8518C66.9951 42.0617 67.2835 42.1675 67.6331 42.1675C67.8995 42.1675 68.1528 42.107 68.3938 41.987C68.6392 41.8618 68.8486 41.6838 69.0213 41.4537C69.1992 41.2186 69.3166 40.9457 69.3736 40.635L69.3744 40.6342ZM73.3049 40.5972C73.3829 40.169 73.5415 39.7953 73.7799 39.477C74.0191 39.1537 74.3153 38.9043 74.6685 38.7305C75.0269 38.5508 75.4143 38.4618 75.8297 38.4618C76.3651 38.4618 76.7832 38.5886 77.0846 38.8422C77.3913 39.0958 77.5622 39.4569 77.599 39.9246H76.4221C76.3905 39.7457 76.3099 39.6063 76.1802 39.5064C76.0505 39.4023 75.8761 39.3494 75.6579 39.3494C75.3459 39.3494 75.0786 39.4585 74.8552 39.6777C74.637 39.8918 74.4915 40.1983 74.4188 40.5964C74.3925 40.7358 74.3793 40.855 74.3793 40.9549C74.3793 41.2388 74.452 41.4579 74.5975 41.6124C74.743 41.7619 74.9454 41.8366 75.2057 41.8366C75.6421 41.8366 75.9646 41.6477 76.1723 41.269H77.3493C77.1468 41.7174 76.8427 42.0726 76.4379 42.3371C76.0374 42.6008 75.5755 42.7326 75.0506 42.7326C74.5257 42.7326 74.0682 42.5857 73.7413 42.2918C73.4188 41.9928 73.2585 41.5898 73.2585 41.0817C73.2585 40.9272 73.2742 40.766 73.3049 40.5964V40.5972ZM79.6506 39.3057C79.8364 39.0588 80.052 38.8665 80.2991 38.7288C80.5462 38.5903 80.8135 38.5214 81.1018 38.5214L80.9012 39.6089H80.6102C80.2895 39.6089 80.0309 39.676 79.8346 39.8096C79.6436 39.9431 79.5034 40.1715 79.4157 40.4931L79.0126 42.6932H77.9031L78.6621 38.581H79.782L79.6506 39.3057ZM83.7449 38.5441C84.2918 38.5441 84.7247 38.6902 85.0446 38.9816C85.3644 39.2679 85.5239 39.6559 85.5239 40.1454C85.5239 40.3033 85.5108 40.4444 85.4854 40.5678C85.4547 40.7156 85.4205 40.8449 85.3846 40.9533H82.2507C82.2455 40.9877 82.2429 41.0372 82.2429 41.1019C82.2429 41.3588 82.32 41.5612 82.4751 41.7098C82.6355 41.8534 82.844 41.9248 83.1017 41.9248C83.3181 41.9248 83.5039 41.8803 83.659 41.7913C83.8194 41.6973 83.9482 41.5763 84.0464 41.4277H85.2146C85.0235 41.8232 84.7273 42.149 84.3251 42.406C83.9281 42.6579 83.4768 42.7839 82.9711 42.7839C82.4243 42.7839 81.9861 42.6361 81.6557 42.3388C81.3253 42.0424 81.1606 41.6393 81.1606 41.1304C81.1606 40.9826 81.1763 40.8265 81.207 40.6636C81.2841 40.2387 81.4419 39.865 81.6794 39.5442C81.9221 39.2234 82.2209 38.9757 82.5767 38.8027C82.9325 38.6297 83.3225 38.5433 83.7449 38.5433V38.5441ZM84.425 40.242C84.4355 40.1614 84.4408 40.1043 84.4408 40.069C84.4408 39.8289 84.3593 39.6408 84.198 39.5056C84.0359 39.3704 83.8247 39.3024 83.5626 39.3024C83.2857 39.3024 83.0377 39.3872 82.8177 39.5576C82.5987 39.7231 82.4435 39.9506 82.355 40.2412H84.425V40.242ZM86.0313 40.5981C86.1093 40.1698 86.268 39.7961 86.5063 39.4779C86.7456 39.1546 87.0418 38.9052 87.395 38.7314C87.7534 38.5516 88.1407 38.4626 88.5561 38.4626C89.0916 38.4626 89.5096 38.5894 89.8111 38.843C90.1178 39.0966 90.2887 39.4577 90.3255 39.9254H89.1485C89.117 39.7466 89.0364 39.6072 88.9067 39.5073C88.777 39.4031 88.6026 39.3502 88.3844 39.3502C88.0724 39.3502 87.8051 39.4594 87.5816 39.6786C87.3634 39.8927 87.2179 40.1992 87.1452 40.5972C87.1189 40.7366 87.1066 40.8558 87.1066 40.9558C87.1066 41.2396 87.1794 41.4588 87.3248 41.6133C87.4703 41.7628 87.6728 41.8375 87.933 41.8375C88.3695 41.8375 88.692 41.6485 88.8997 41.2698H90.0766C89.8742 41.7182 89.5701 42.0734 89.1652 42.338C88.7647 42.6016 88.3029 42.7335 87.7779 42.7335C87.253 42.7335 86.7955 42.5865 86.4686 42.2926C86.1461 41.9937 85.9858 41.5906 85.9858 41.0826C85.9858 40.9281 86.0015 40.7668 86.0322 40.5972L86.0313 40.5981ZM93.3016 38.5441C93.8484 38.5441 94.2814 38.6902 94.6012 38.9816C94.9211 39.2679 95.0806 39.6559 95.0806 40.1454C95.0806 40.3033 95.0674 40.4444 95.042 40.5678C95.0114 40.7156 94.9772 40.8449 94.9412 40.9533H91.8074C91.8021 40.9877 91.7995 41.0372 91.7995 41.1019C91.7995 41.3588 91.8766 41.5612 92.0317 41.7098C92.1912 41.8534 92.4007 41.9248 92.6583 41.9248C92.8748 41.9248 93.0606 41.8803 93.2157 41.7913C93.3752 41.6973 93.5049 41.5763 93.6022 41.4277H94.7704C94.5793 41.8232 94.2831 42.149 93.8809 42.406C93.4839 42.6579 93.0325 42.7839 92.5269 42.7839C91.98 42.7839 91.5419 42.6361 91.2115 42.3388C90.8811 42.0424 90.7163 41.6393 90.7163 41.1304C90.7163 40.9826 90.7321 40.8265 90.7628 40.6636C90.8399 40.2387 90.9976 39.865 91.2351 39.5442C91.4779 39.2234 91.7767 38.9757 92.1325 38.8027C92.4883 38.6297 92.8783 38.5433 93.3007 38.5433L93.3016 38.5441ZM93.9816 40.242C93.9922 40.1614 93.9974 40.1043 93.9974 40.069C93.9974 39.8289 93.9159 39.6408 93.7547 39.5056C93.5925 39.3704 93.3805 39.3024 93.1193 39.3024C92.8424 39.3024 92.5944 39.3872 92.3744 39.5576C92.1553 39.7231 92.0011 39.9506 91.9117 40.2412H93.9816V40.242ZM97.2171 39.3057C97.4021 39.0588 97.6185 38.8665 97.8656 38.7288C98.1128 38.5903 98.3801 38.5214 98.6684 38.5214L98.4677 39.6089H98.1768C97.856 39.6089 97.5975 39.676 97.4012 39.8096C97.2101 39.9431 97.0708 40.1715 96.9823 40.4931L96.5792 42.6932H95.4697L96.2286 38.581H97.3486L97.2171 39.3057ZM102.311 37.9151C102.191 37.9151 102.091 37.8799 102.013 37.8102C101.94 37.7396 101.904 37.6473 101.904 37.5322C101.904 37.3819 101.962 37.2543 102.077 37.1493C102.191 37.0393 102.325 36.9839 102.476 36.9839C102.596 36.9839 102.693 37.0192 102.766 37.0889C102.839 37.1585 102.876 37.2518 102.876 37.3668C102.876 37.5171 102.819 37.6473 102.703 37.7573C102.588 37.8622 102.458 37.9151 102.311 37.9151ZM101.614 43.6076C101.551 43.9746 101.407 44.2433 101.181 44.4138C100.956 44.5851 100.657 44.6699 100.284 44.6699H99.8672L99.9724 44.1165H100.267C100.467 44.1165 100.615 44.0787 100.709 44.0031C100.804 43.9276 100.867 43.7991 100.899 43.6169L101.831 38.581H102.542L101.614 43.6076ZM107.519 38.581L106.759 42.6932H106.046L106.156 42.0928C105.983 42.3027 105.764 42.4656 105.498 42.5806C105.231 42.6957 104.955 42.7528 104.668 42.7528C104.219 42.7528 103.859 42.6377 103.587 42.4077C103.321 42.1725 103.188 41.8375 103.188 41.4025C103.188 41.2925 103.201 41.1548 103.227 40.9902L103.673 38.581H104.378L103.955 40.8995C103.934 41.0045 103.924 41.1145 103.924 41.2295C103.924 41.5343 104.01 41.7669 104.182 41.9273C104.359 42.0827 104.605 42.1599 104.919 42.1599C105.295 42.1599 105.613 42.0474 105.874 41.8224C106.14 41.5973 106.309 41.2698 106.383 40.8399V40.8626L106.805 38.5819H107.518L107.519 38.581ZM110.244 38.5911C110.458 38.5281 110.682 38.5013 110.906 38.5071C111.318 38.5181 111.65 38.6331 111.902 38.8514C112.169 39.0765 112.302 39.4065 112.302 39.8423C112.302 40.0027 112.289 40.1446 112.262 40.2697L111.816 42.6932H111.112L111.542 40.3671C111.563 40.2622 111.574 40.1522 111.574 40.0371C111.574 39.7323 111.485 39.4997 111.307 39.3393C111.135 39.1789 110.892 39.0991 110.579 39.0991C110.203 39.0991 109.882 39.2117 109.616 39.4367C109.355 39.6618 109.186 39.9893 109.107 40.4192V40.4041L108.684 42.6932H107.972L108.732 38.581H109.444L109.335 39.1739C109.564 38.8959 109.867 38.7011 110.245 38.5911H110.244ZM114.096 41.5856C114.08 41.6611 114.072 41.7275 114.072 41.7829C114.072 41.9097 114.112 42.0004 114.19 42.0558C114.275 42.1112 114.409 42.1389 114.594 42.1389H115.115L115.01 42.6923H114.366C114.026 42.6923 113.769 42.6293 113.596 42.5042C113.429 42.3791 113.345 42.1734 113.345 41.887C113.345 41.777 113.355 41.6687 113.376 41.5637L113.824 39.1336H113.276L113.376 38.5802H113.937L114.124 37.5524H114.839L114.652 38.5802H115.767L115.667 39.1336H114.547L114.096 41.5847V41.5856ZM117.762 42.7679C117.4 42.7679 117.081 42.6982 116.805 42.558C116.534 42.4127 116.322 42.2128 116.17 41.9567C116.018 41.6964 115.943 41.3958 115.943 41.0549C115.943 40.5888 116.055 40.1631 116.281 39.7776C116.505 39.3872 116.813 39.079 117.206 38.8539C117.603 38.6289 118.045 38.5155 118.531 38.5155C118.892 38.5155 119.211 38.5886 119.488 38.7339C119.77 38.8741 119.987 39.074 120.139 39.3351C120.296 39.5904 120.374 39.891 120.374 40.237C120.374 40.703 120.259 41.1288 120.029 41.5142C119.799 41.8996 119.485 42.2053 119.087 42.4303C118.69 42.6554 118.249 42.7679 117.762 42.7679H117.762ZM117.847 42.1893C118.187 42.1893 118.493 42.102 118.765 41.9265C119.037 41.746 119.249 41.5108 119.4 41.2203C119.557 40.9247 119.635 40.609 119.635 40.2739C119.635 39.8935 119.52 39.603 119.29 39.4023C119.06 39.1966 118.772 39.0941 118.428 39.0941C118.083 39.0941 117.784 39.184 117.518 39.3645C117.252 39.54 117.045 39.7751 116.898 40.0707C116.752 40.3663 116.679 40.6845 116.679 41.0246C116.679 41.395 116.789 41.683 117.009 41.8887C117.228 42.0894 117.508 42.1893 117.847 42.1893ZM122.403 42.7671C121.959 42.7671 121.596 42.6655 121.312 42.4631C121.028 42.2607 120.886 41.9886 120.886 41.6477C120.886 41.583 120.888 41.5369 120.894 41.5066H121.582C121.561 41.7191 121.626 41.8921 121.776 42.0256C121.931 42.1591 122.153 42.2254 122.441 42.2254C122.73 42.2254 122.962 42.1734 123.138 42.0692C123.319 41.9609 123.409 41.8098 123.409 41.6166C123.409 41.4537 123.337 41.3253 123.192 41.2312C123.048 41.1372 122.826 41.0364 122.527 40.9272C122.264 40.8332 122.048 40.7442 121.877 40.6602C121.707 40.5762 121.562 40.4603 121.444 40.3117C121.326 40.1589 121.266 39.9657 121.266 39.7331C121.266 39.5005 121.333 39.3032 121.468 39.1252C121.607 38.9472 121.798 38.8111 122.04 38.7171C122.288 38.618 122.568 38.5684 122.883 38.5684C123.316 38.5684 123.673 38.6726 123.95 38.88C124.229 39.0874 124.368 39.3595 124.368 39.6954C124.368 39.7592 124.366 39.8087 124.361 39.8431H123.687L123.695 39.7541C123.695 39.5568 123.616 39.4006 123.455 39.2872C123.3 39.1688 123.094 39.1092 122.837 39.1092C122.579 39.1092 122.375 39.1638 122.21 39.2721C122.05 39.3813 121.97 39.5266 121.97 39.7096C121.97 39.8826 122.044 40.0186 122.194 40.1177C122.344 40.2168 122.575 40.3251 122.891 40.4435C123.154 40.5426 123.365 40.6342 123.525 40.7181C123.686 40.7971 123.822 40.9088 123.935 41.0515C124.049 41.1951 124.105 41.3748 124.105 41.5923C124.105 41.8299 124.031 42.0373 123.881 42.2154C123.737 42.3934 123.536 42.5294 123.277 42.6235C123.019 42.7175 122.728 42.7645 122.403 42.7645V42.7671Z" fill="white"/>
<path d="M18.3514 9.2538C10.9629 2.46212 -1.63473 10.2136 0.385274 19.4506C1.64197 25.1968 8.17871 26.4723 13.4693 25.1162C16.8257 24.2571 16.4252 21.1594 16.4252 21.1594C12.2143 22.0856 4.20093 21.2526 4.85907 18.1918C8.09808 19.0567 13.0355 19.2616 16.4997 17.5679C21.0208 15.3569 20.2496 11.2817 18.3506 9.2538H18.3514ZM15.2535 13.1249C14.1248 15.3418 7.67392 15.3233 5.35158 14.675C6.80808 11.5303 10.6378 9.65182 14.1502 11.013C15.2106 11.4253 15.6812 12.2776 15.2535 13.1249Z" fill="white"/>
<path d="M64.3785 8.10177C61.25 7.12517 57.4965 6.67676 54.7474 6.67676C47.4745 6.67676 42.8964 12.905 43.1103 18.3691C43.1926 20.4658 43.9323 25.2262 50.5935 25.7737C52.4426 25.9249 54.2076 25.699 55.7526 24.6124C55.764 24.6032 55.8726 24.5116 55.8472 24.6418C55.792 24.9466 55.6684 25.615 55.6684 25.615H60.7881C61.0983 25.615 61.1413 25.4118 61.1869 25.2044C62.3708 19.6958 63.5627 14.1973 64.7326 8.68454C64.8071 8.33689 64.7343 8.21009 64.3794 8.10177H64.3785ZM58.7348 11.3826C58.1109 14.2233 57.5062 17.0675 56.8761 19.9091C56.8209 20.1535 56.6876 20.376 56.4913 20.5423C54.9954 21.8086 53.2523 22.2251 51.3051 21.7993C47.5709 20.9831 48.1835 15.9465 49.491 13.5171C50.6829 11.3062 53.3759 10.0566 56.118 10.3951C58.8628 10.7309 58.8058 11.0526 58.7348 11.3826Z" fill="white"/>
<path d="M124.34 13.4374C123.957 9.09018 120.349 6.79102 116.018 6.79102C106.937 6.79102 103.937 14.0084 104.214 19.0249C104.479 23.8416 108.957 26.0837 113.468 25.6823C117.658 25.4446 120.807 23.6241 122.755 20.0578C123.882 17.9904 124.612 15.8113 124.34 13.4374ZM111.816 21.6054C107.819 20.8228 109.174 15.7937 110.008 14.3116C112.022 10.7302 114.766 10.5656 116.327 10.8007C118.388 11.1089 119.558 12.5095 119.443 14.8759C119.268 18.4573 116.467 22.5157 111.817 21.6062L111.816 21.6054Z" fill="white"/>
<path d="M63.6137 33.8376L64.2912 30.6777C64.3937 30.3082 64.76 30.0445 65.1631 30.0336C67.1928 29.9799 67.8877 29.6431 68.9025 28.5935C69.6781 27.6563 70.2653 26.904 70.9164 26.0374C71.0032 25.9232 71.0111 25.7199 70.9795 25.5705C69.8797 20.2609 67.106 6.79091 67.106 6.79091C67.106 6.79091 72.1626 6.74809 72.4807 8.67861C73.0915 12.3759 74.5358 19.852 74.605 20.1467C74.7838 19.8536 79.5126 12.1299 81.7254 8.42669C82.8112 6.60953 86.9467 6.79091 88.3129 6.79091C84.2353 13.2727 76.3165 25.8425 75.0817 27.7957C71.8743 32.8643 69.0515 33.8762 66.0947 33.8409C65.2902 33.8317 63.6137 33.8367 63.6137 33.8367V33.8376Z" fill="white"/>
<path d="M101.082 20.5063C100.795 21.8372 100.275 24.2598 100.257 24.3455C100.228 24.4874 100.165 24.6444 99.9671 24.7158C97.2364 25.6865 94.3216 26.1442 91.6689 25.2499C83.0867 22.3587 85.3907 9.2397 94.354 7.15214C98.7551 6.12684 103.145 7.61147 103.359 7.67529C103.608 7.75003 103.763 7.98935 103.712 8.23203C103.557 8.96259 103.064 11.2743 103.042 11.3583C100.559 10.5942 97.9497 10.0416 95.4136 10.8898C90.3728 12.5776 89.2773 20.806 94.291 21.7692C96.6939 22.2319 98.8927 21.4216 101.081 20.5071L101.082 20.5063Z" fill="white"/>
</svg>
