<svg width="295" height="85" viewBox="0 0 295 85" fill="none" xmlns="http://www.w3.org/2000/svg">
<path d="M48.8503 50.2981C48.7574 50.7503 48.6644 51.207 48.5715 51.6592C46.2431 52.0468 43.9055 52.3051 41.5679 52.4482C44.0496 51.7792 46.4802 51.0732 48.8503 50.2981Z" fill="#494949"/>
<path d="M100.924 5.84261C94.2597 24.1599 80.5406 40.6961 62.0254 47.9631C62.0254 47.9631 62.769 44.3319 62.7736 44.3319C77.8033 35.7777 88.0601 20.4595 92.2055 4.02473C93.6695 3.23113 97.6662 0.965698 97.6662 0.965698C97.6662 0.965698 99.7761 4.07548 100.924 5.84261Z" fill="url(#paint0_linear_371_1173)"/>
<path d="M69.3885 12.1361C69.5233 11.4717 69.7324 11.0565 70.4899 11.0011C73.7338 10.7474 76.973 10.226 80.2076 10.2537C84.2044 10.2813 86.8487 13.082 87.3692 17.3268C89.428 13.0589 91.0453 8.59727 92.2025 4.02488C92.1467 3.98335 92.091 3.94644 92.0352 3.90953C88.8424 1.7456 85.1943 1.16425 81.4485 1.00738C73.7942 0.675173 66.3816 2.15163 59.0574 4.15868C58.667 4.26941 58.2162 4.86 58.1232 5.29832C57.4773 8.42656 46.0308 64.1073 46.0308 64.1073H54.5959C57.0079 64.1073 59.076 62.2617 59.5639 59.8902C59.5686 59.8994 68.8308 14.8722 69.3885 12.1361Z" fill="black"/>
<path d="M98.4061 11.9606C91.5838 26.7205 80.128 39.6902 65.2563 46.5834C89.3437 53.4166 105.196 29.881 98.4061 11.9606Z" fill="black"/>
<path d="M43.0452 23.7032C25.5525 6.92243 -4.26982 26.0748 0.51234 48.8952C3.48667 63.0923 18.9625 66.2436 31.4872 62.8939C39.4342 60.7715 38.4861 53.117 38.4861 53.117C28.5175 55.4055 9.54686 53.3477 11.1037 45.7855C18.7719 47.9217 30.4601 48.4292 38.6627 44.2444C49.3657 38.7815 47.5392 28.714 43.0452 23.7032ZM35.7116 33.2679C33.0394 38.7446 17.7681 38.6985 12.2702 37.0974C15.7186 29.3276 24.7856 24.686 33.0998 28.0496C35.6094 29.0692 36.7248 31.1732 35.7116 33.2679Z" fill="black"/>
<path d="M152.012 20.8517C144.604 18.4386 135.719 17.3313 129.212 17.3313C111.994 17.3313 101.156 32.7187 101.663 46.219C101.858 51.4005 103.61 63.1613 119.378 64.5132C123.756 64.8869 127.934 64.3286 131.592 61.6433C131.62 61.6203 131.875 61.3942 131.815 61.7172C131.685 62.4692 131.392 64.121 131.392 64.121C131.392 64.121 139.613 64.121 143.512 64.121C144.247 64.121 144.349 63.6181 144.456 63.106C147.258 49.4949 150.079 35.9115 152.849 22.2913C153.025 21.4331 152.853 21.1193 152.012 20.8517ZM138.651 28.963C137.173 35.9807 135.742 43.0077 134.25 50.0301C134.12 50.6345 133.804 51.1836 133.339 51.5942C129.798 54.7225 125.671 55.7514 121.061 54.6994C112.221 52.6831 113.671 40.2394 116.767 34.2367C119.587 28.7738 125.964 25.6871 132.456 26.5222C138.953 27.3527 138.818 28.1463 138.651 28.963Z" fill="black"/>
<path d="M293.963 33.7522C293.057 23.011 284.515 17.3313 274.263 17.3313C252.764 17.3313 245.663 35.1641 246.318 47.5571C246.945 59.4564 257.546 64.9977 268.226 64.0057C278.148 63.4197 285.602 58.9211 290.213 50.1086C292.88 45.001 294.609 39.6165 293.963 33.7522ZM264.313 53.9335C254.85 52.0003 258.057 39.575 260.032 35.9115C264.801 27.062 271.298 26.656 274.992 27.2374C279.872 27.9987 282.642 31.4591 282.368 37.3049C281.954 46.1544 275.322 56.1805 264.313 53.9335Z" fill="black"/>
<path d="M150.199 84.1548L151.803 76.3481C152.044 75.4345 152.913 74.7839 153.866 74.7563C158.671 74.6225 160.317 73.792 162.719 71.1989C164.555 68.8828 165.945 67.0233 167.487 64.8825C167.692 64.601 167.711 64.0981 167.636 63.729C165.034 50.6116 158.467 17.3315 158.467 17.3315C158.467 17.3315 170.439 17.2253 171.191 21.9961C172.637 31.1317 176.057 49.6012 176.22 50.3302C176.643 49.6058 187.838 30.5226 193.076 21.3733C195.646 16.8839 205.438 17.3315 208.673 17.3315C199.02 33.3464 180.272 64.4026 177.349 69.2288C169.755 81.751 163.072 84.2517 156.074 84.164C154.168 84.141 150.199 84.1548 150.199 84.1548Z" fill="black"/>
<path d="M238.9 51.216C238.222 54.5057 236.99 60.49 236.949 60.7022C236.879 61.0529 236.73 61.4405 236.261 61.6158C229.796 64.015 222.895 65.1454 216.616 62.9354C196.298 55.793 201.754 23.3803 222.974 18.2219C233.393 15.6889 243.785 19.3569 244.291 19.5138C244.882 19.6984 245.249 20.2889 245.128 20.8887C244.761 22.6928 243.594 28.4048 243.543 28.6124C237.664 26.7253 231.488 25.3596 225.483 27.4543C213.549 31.6253 210.956 51.9542 222.825 54.335C228.514 55.4793 233.719 53.4768 238.9 51.216Z" fill="black"/>
<defs>
<linearGradient id="paint0_linear_371_1173" x1="81.4747" y1="0.965698" x2="81.4012" y2="48.0273" gradientUnits="userSpaceOnUse">
<stop offset="0.145833" stop-color="#FF6110"/>
<stop offset="1" stop-color="#494949"/>
</linearGradient>
</defs>
</svg>
